<svg width="176" height="52" viewBox="0 0 176 52" fill="none" xmlns="http://www.w3.org/2000/svg">
<path d="M2.11166 18V1.42296H12.4723V3.04613H3.8039V8.77902H11.0909V10.4022H3.8039V16.3768H12.4723V18H2.11166ZM34.6788 18L34.6903 9.83811C34.6903 8.87879 34.4217 8.12669 33.8845 7.58179C33.3549 7.02923 32.6796 6.75294 31.8584 6.75294C31.3903 6.75294 30.9336 6.86038 30.4885 7.07527C30.0434 7.29016 29.675 7.63551 29.3834 8.11134C29.0994 8.58716 28.9574 9.2088 28.9574 9.97625L27.9559 9.68846C27.9329 8.79821 28.1055 8.01924 28.4739 7.35156C28.85 6.68387 29.3642 6.16584 30.0165 5.79746C30.6765 5.42141 31.421 5.23338 32.2498 5.23338C33.5008 5.23338 34.5023 5.62094 35.2544 6.39607C36.0065 7.16353 36.3826 8.20343 36.3826 9.51578L36.371 18H34.6788ZM19.8401 18V5.56722H21.3596V8.62937H21.5438V18H19.8401ZM27.2767 18L27.2882 9.95323C27.2882 8.96321 27.0234 8.18425 26.4939 7.61633C25.972 7.04074 25.2813 6.75294 24.4218 6.75294C23.5622 6.75294 22.8677 7.04841 22.3381 7.63935C21.8086 8.22262 21.5438 9.00159 21.5438 9.97625L20.5308 9.42369C20.5308 8.62553 20.7188 7.9118 21.0948 7.28249C21.4709 6.6455 21.9851 6.14665 22.6374 5.78595C23.2898 5.41757 24.0304 5.23338 24.8592 5.23338C25.6497 5.23338 26.3519 5.40222 26.9659 5.7399C27.5875 6.07758 28.0749 6.56875 28.4279 7.21341C28.7809 7.85808 28.9574 8.64088 28.9574 9.56183L28.9459 18H27.2767ZM67.4066 18C66.7082 18.1458 66.0175 18.2034 65.3345 18.1727C64.6591 18.142 64.0528 17.9962 63.5156 17.7352C62.986 17.4743 62.5831 17.0675 62.3068 16.515C62.0843 16.0545 61.9615 15.5902 61.9385 15.122C61.9231 14.6462 61.9154 14.1052 61.9154 13.4989V2.11367H63.5962V13.4298C63.5962 13.9517 63.6 14.3891 63.6077 14.7422C63.623 15.0875 63.7036 15.3945 63.8494 15.6631C64.1257 16.1773 64.5632 16.4843 65.1618 16.584C65.7681 16.6838 66.5163 16.6608 67.4066 16.515V18ZM59.2562 7.01771V5.56722H67.4066V7.01771H59.2562ZM70.0863 3.2073V1.30785H71.7786V3.2073H70.0863ZM70.0863 18V5.56722H71.7786V18H70.0863ZM80.4216 18.3454C79.186 18.3454 78.1307 18.0652 77.2558 17.505C76.381 16.9447 75.7094 16.1696 75.2413 15.1796C74.7731 14.1896 74.5391 13.0538 74.5391 11.7721C74.5391 10.4674 74.777 9.32392 75.2528 8.34157C75.7286 7.35923 76.404 6.59561 77.2789 6.05072C78.1614 5.49815 79.209 5.22187 80.4216 5.22187C81.6649 5.22187 82.724 5.50199 83.5989 6.06223C84.4814 6.6148 85.153 7.38609 85.6134 8.37611C86.0816 9.35845 86.3157 10.4904 86.3157 11.7721C86.3157 13.0768 86.0816 14.2241 85.6134 15.2141C85.1453 16.1965 84.4699 16.9639 83.5874 17.5165C82.7048 18.0691 81.6495 18.3454 80.4216 18.3454ZM80.4216 16.7222C81.803 16.7222 82.8314 16.2656 83.5068 15.3523C84.1821 14.4313 84.5198 13.2379 84.5198 11.7721C84.5198 10.2679 84.1783 9.07066 83.4953 8.18041C82.8199 7.29016 81.7953 6.84504 80.4216 6.84504C79.493 6.84504 78.7255 7.05609 78.1192 7.47819C77.5206 7.89261 77.0717 8.47204 76.7724 9.21647C76.4807 9.95323 76.3349 10.8051 76.3349 11.7721C76.3349 13.2686 76.6803 14.4697 77.371 15.3753C78.0617 16.2732 79.0786 16.7222 80.4216 16.7222ZM97.8343 18V11.657C97.8343 10.9663 97.7691 10.3331 97.6386 9.75753C97.5082 9.17426 97.2971 8.66774 97.0055 8.23797C96.7215 7.80052 96.3493 7.46284 95.8888 7.22493C95.436 6.98701 94.8835 6.86806 94.2311 6.86806C93.6325 6.86806 93.103 6.97167 92.6425 7.17888C92.1897 7.38609 91.806 7.6854 91.4913 8.0768C91.1843 8.46053 90.9502 8.92868 90.7891 9.48125C90.6279 10.0338 90.5473 10.6631 90.5473 11.3692L89.3501 11.1044C89.3501 9.83044 89.5727 8.75984 90.0178 7.89261C90.4629 7.02539 91.0769 6.36921 91.8597 5.92409C92.6425 5.47897 93.5404 5.2564 94.5535 5.2564C95.2979 5.2564 95.9464 5.37152 96.499 5.60176C97.0592 5.83199 97.5312 6.14281 97.9149 6.53422C98.3063 6.92562 98.621 7.37458 98.8589 7.8811C99.0968 8.37995 99.2695 8.91333 99.3769 9.48125C99.4844 10.0415 99.5381 10.6017 99.5381 11.162V18H97.8343ZM88.8436 18V5.56722H90.3747V8.62937H90.5473V18H88.8436ZM107.165 18.3338C105.707 18.3338 104.505 18.0192 103.561 17.3899C102.625 16.7606 102.05 15.8857 101.835 14.7652L103.561 14.4774C103.746 15.1834 104.164 15.7475 104.816 16.1696C105.476 16.584 106.29 16.7913 107.257 16.7913C108.201 16.7913 108.945 16.5956 109.49 16.2042C110.035 15.8051 110.307 15.264 110.307 14.581C110.307 14.1973 110.219 13.8864 110.043 13.6485C109.874 13.4029 109.525 13.1765 108.995 12.9693C108.466 12.7621 107.675 12.5165 106.624 12.2326C105.495 11.9256 104.613 11.6186 103.976 11.3116C103.339 11.0046 102.886 10.6516 102.617 10.2525C102.349 9.84579 102.215 9.35078 102.215 8.76751C102.215 8.06145 102.414 7.44365 102.813 6.91411C103.212 6.37689 103.765 5.96246 104.471 5.67083C105.177 5.37152 105.998 5.22187 106.934 5.22187C107.871 5.22187 108.707 5.37536 109.444 5.68234C110.188 5.98165 110.787 6.40375 111.24 6.94864C111.693 7.49354 111.961 8.12669 112.046 8.84809L110.319 9.15891C110.204 8.42983 109.839 7.85424 109.225 7.43214C108.619 7.00236 107.848 6.7798 106.911 6.76445C106.029 6.74143 105.311 6.91027 104.759 7.27097C104.206 7.624 103.93 8.09599 103.93 8.68693C103.93 9.01693 104.03 9.30089 104.229 9.5388C104.429 9.76904 104.789 9.98777 105.311 10.195C105.841 10.4022 106.593 10.6286 107.568 10.8742C108.711 11.1658 109.609 11.4728 110.261 11.7951C110.914 12.1175 111.378 12.4973 111.654 12.9348C111.931 13.3722 112.069 13.9133 112.069 14.558C112.069 15.7322 111.631 16.657 110.756 17.3323C109.889 18 108.692 18.3338 107.165 18.3338ZM122.592 18L118.08 5.56722H119.795L123.467 15.7897L127.117 5.56722H128.855L124.342 18H122.592ZM131.153 3.2073V1.30785H132.845V3.2073H131.153ZM131.153 18V5.56722H132.845V18H131.153ZM141.12 18.3454C139.961 18.3454 138.971 18.0576 138.15 17.482C137.329 16.8987 136.699 16.1121 136.262 15.122C135.824 14.132 135.606 13.0154 135.606 11.7721C135.606 10.5365 135.821 9.42369 136.25 8.43367C136.688 7.44365 137.313 6.66085 138.127 6.08525C138.94 5.50966 139.915 5.22187 141.051 5.22187C142.217 5.22187 143.2 5.50583 143.998 6.07374C144.796 6.64166 145.398 7.42063 145.805 8.41064C146.22 9.39299 146.427 10.5135 146.427 11.7721C146.427 13.0077 146.223 14.1244 145.817 15.122C145.41 16.1121 144.811 16.8987 144.021 17.482C143.23 18.0576 142.263 18.3454 141.12 18.3454ZM141.293 16.7682C142.175 16.7682 142.904 16.5533 143.48 16.1236C144.055 15.6938 144.485 15.1029 144.769 14.3507C145.053 13.591 145.195 12.7314 145.195 11.7721C145.195 10.7974 145.053 9.93788 144.769 9.19345C144.485 8.44134 144.055 7.85424 143.48 7.43214C142.912 7.01004 142.194 6.79899 141.327 6.79899C140.437 6.79899 139.7 7.01771 139.117 7.45516C138.534 7.89261 138.1 8.48739 137.816 9.2395C137.54 9.9916 137.402 10.8358 137.402 11.7721C137.402 12.7161 137.544 13.5679 137.827 14.3277C138.119 15.0798 138.553 15.6746 139.128 16.1121C139.704 16.5495 140.425 16.7682 141.293 16.7682ZM145.195 18V8.64088H145.011V1.42296H146.715V18H145.195ZM155.205 18.3454C153.993 18.3454 152.941 18.0767 152.051 17.5395C151.168 17.0023 150.481 16.2464 149.99 15.2717C149.499 14.297 149.254 13.1535 149.254 11.8412C149.254 10.4828 149.495 9.30857 149.979 8.31855C150.462 7.32853 151.141 6.56491 152.016 6.0277C152.899 5.49048 153.939 5.22187 155.136 5.22187C156.364 5.22187 157.412 5.50583 158.279 6.07374C159.146 6.63399 159.802 7.43981 160.247 8.49123C160.692 9.54264 160.896 10.7974 160.857 12.2556H159.131V11.657C159.1 10.0453 158.751 8.82891 158.083 8.00773C157.423 7.18655 156.456 6.77597 155.182 6.77597C153.847 6.77597 152.822 7.20958 152.108 8.0768C151.402 8.94403 151.049 10.1796 151.049 11.7836C151.049 13.3492 151.402 14.5656 152.108 15.4329C152.822 16.2924 153.831 16.7222 155.136 16.7222C156.026 16.7222 156.801 16.5188 157.461 16.1121C158.129 15.6976 158.655 15.1029 159.039 14.3277L160.616 14.9379C160.125 16.02 159.399 16.8603 158.44 17.4589C157.488 18.0499 156.41 18.3454 155.205 18.3454ZM150.451 12.2556V10.8396H159.948V12.2556H150.451ZM168.604 18.3454C167.368 18.3454 166.313 18.0652 165.438 17.505C164.563 16.9447 163.892 16.1696 163.424 15.1796C162.956 14.1896 162.721 13.0538 162.721 11.7721C162.721 10.4674 162.959 9.32392 163.435 8.34157C163.911 7.35923 164.586 6.59561 165.461 6.05072C166.344 5.49815 167.391 5.22187 168.604 5.22187C169.847 5.22187 170.906 5.50199 171.781 6.06223C172.664 6.6148 173.335 7.38609 173.796 8.37611C174.264 9.35845 174.498 10.4904 174.498 11.7721C174.498 13.0768 174.264 14.2241 173.796 15.2141C173.328 16.1965 172.652 16.9639 171.77 17.5165C170.887 18.0691 169.832 18.3454 168.604 18.3454ZM168.604 16.7222C169.985 16.7222 171.014 16.2656 171.689 15.3523C172.365 14.4313 172.702 13.2379 172.702 11.7721C172.702 10.2679 172.361 9.07066 171.678 8.18041C171.002 7.29016 169.978 6.84504 168.604 6.84504C167.675 6.84504 166.908 7.05609 166.302 7.47819C165.703 7.89261 165.254 8.47204 164.955 9.21647C164.663 9.95323 164.517 10.8051 164.517 11.7721C164.517 13.2686 164.863 14.4697 165.553 15.3753C166.244 16.2732 167.261 16.7222 168.604 16.7222Z" fill="white"/>
<line x1="32.2393" y1="28.4326" x2="143.76" y2="28.4326" stroke="white" stroke-width="0.719489"/>
<path d="M22.3807 46.7727C22.0123 46.7727 21.6784 46.6576 21.3791 46.4274C21.0798 46.1856 20.9302 45.8691 20.9302 45.4777C20.9302 44.6603 21.4309 43.7279 22.4325 42.6803C23.457 41.6212 24.3722 41.0916 25.178 41.0916C25.4428 41.0916 25.6558 41.1665 25.8169 41.3161C25.9896 41.4543 26.076 41.6269 26.076 41.8342C26.076 42.4788 25.5637 43.112 24.5391 43.7336C23.6297 44.2862 22.8642 44.5625 22.2425 44.5625C22.1504 44.5625 22.0698 44.551 22.0008 44.5279C21.8281 44.8387 21.7417 45.1668 21.7417 45.5122C21.7417 46.1108 22.0238 46.4101 22.5879 46.4101C23.1635 46.4101 23.906 46.0245 24.8154 45.2532C25.5176 44.6891 26.1162 44.0905 26.6113 43.4573C26.7149 43.3192 26.807 43.2501 26.8875 43.2501C26.9566 43.2501 26.9911 43.2847 26.9911 43.3537C26.9911 43.4228 26.9451 43.5206 26.853 43.6473C26.5307 44.0732 26.1853 44.4646 25.8169 44.8215C25.4486 45.1783 25.0514 45.5064 24.6255 45.8057C23.7391 46.4504 22.9908 46.7727 22.3807 46.7727ZM22.4843 44.1826C22.9217 44.1826 23.4915 43.9638 24.1938 43.5264C24.424 43.3652 24.6485 43.1868 24.8672 42.9911C25.0974 42.7839 25.2816 42.5767 25.4198 42.3695C25.5694 42.1622 25.6443 41.9781 25.6443 41.8169C25.6443 41.6672 25.5234 41.5924 25.2816 41.5924C24.9363 41.5924 24.4528 41.8514 23.8311 42.3695C23.5318 42.6227 23.244 42.899 22.9678 43.1983C22.6915 43.4976 22.4555 43.8142 22.2598 44.148C22.3289 44.1711 22.4037 44.1826 22.4843 44.1826ZM31.7369 46.5828C31.4607 46.5828 31.3225 46.4274 31.3225 46.1166C31.4491 45.4719 31.7082 44.7467 32.0996 43.9408C32.2838 43.5494 32.4679 43.1638 32.6521 42.7839C32.8478 42.404 33.0378 42.0184 33.222 41.6269C32.796 41.9147 32.3701 42.2371 31.9442 42.5939C31.5182 42.9393 31.1038 43.3307 30.7009 43.7681C30.2289 44.2747 29.6821 44.9251 29.0604 45.7194C28.6115 46.2835 28.3525 46.5655 28.2834 46.5655C28.1222 46.5655 27.9898 46.4907 27.8862 46.341C27.7826 46.1914 27.7308 46.0648 27.7308 45.9612C27.7308 45.8115 27.8632 45.4259 28.128 44.8042C28.2086 44.6085 28.2891 44.4186 28.3697 44.2344C28.4618 44.0387 28.5482 43.8487 28.6287 43.6645L27.5927 44.7524C27.5697 44.7754 27.5006 44.8445 27.3855 44.9596C27.2703 45.0747 27.1783 45.1323 27.1092 45.1323C27.0516 45.1323 27.0228 45.092 27.0228 45.0114C27.0228 44.9884 27.0344 44.9596 27.0574 44.9251C27.0689 44.879 27.1034 44.8272 27.161 44.7697C27.3337 44.597 27.5121 44.4128 27.6963 44.2171C27.8805 44.0214 28.0704 43.7969 28.2661 43.5437C28.4158 43.348 28.6287 43.0602 28.905 42.6803C29.1928 42.2889 29.5439 41.7996 29.9584 41.2125C30.085 41.0398 30.2634 40.9535 30.4937 40.9535C30.7239 40.9535 30.839 41.0629 30.839 41.2816C30.839 41.3622 30.5455 41.8975 29.9584 42.8875C29.6591 43.417 29.4173 43.8487 29.2331 44.1826C29.0604 44.5164 28.9511 44.7639 28.905 44.9251C29.1583 44.6488 29.4576 44.338 29.803 43.9926C30.1598 43.6473 30.5685 43.2616 31.029 42.8357C32.4449 41.5233 33.3774 40.8672 33.8263 40.8672C33.953 40.8672 34.0738 40.9075 34.189 40.988C34.3156 41.0686 34.3789 41.1722 34.3789 41.2989C34.3789 41.3564 34.1544 41.7766 33.7055 42.5594C33.268 43.3537 33.0263 43.8257 32.9802 43.9754C34.258 42.9048 34.8969 42.3637 34.8969 42.3522C35.9791 41.5118 36.7561 41.0916 37.2281 41.0916C37.3662 41.0916 37.4929 41.1377 37.608 41.2298C37.7346 41.3104 37.7979 41.4082 37.7979 41.5233C37.7979 41.5464 37.4295 42.0299 36.6928 42.9738C35.933 43.9293 35.5071 44.7121 35.415 45.3222C35.3689 45.7367 35.5819 45.9439 36.0539 45.9439C36.3417 45.9439 36.7446 45.7597 37.2626 45.3913C37.7807 45.0229 38.3217 44.5164 38.8858 43.8718C38.9549 43.7912 39.0297 43.7163 39.1103 43.6473C39.1909 43.5667 39.2599 43.5264 39.3175 43.5264C39.3866 43.5264 39.4211 43.5552 39.4211 43.6127C39.4211 43.6933 39.3693 43.7854 39.2657 43.889C38.9664 44.2459 38.6095 44.6143 38.1951 44.9942C37.7922 45.374 37.3892 45.6964 36.9863 45.9612C36.5834 46.2144 36.2266 46.341 35.9157 46.341C35.1329 46.341 34.7415 45.9784 34.7415 45.2532C34.7415 44.9999 34.8106 44.7064 34.9487 44.3725C35.0869 44.0272 35.225 43.7163 35.3632 43.4401C35.697 42.7954 36.0596 42.2256 36.451 41.7306C36.0827 41.9147 35.697 42.1565 35.2941 42.4558C34.9027 42.7551 34.494 43.1062 34.0681 43.5091C33.0781 44.4761 32.3989 45.4546 32.0305 46.4446C31.9729 46.5367 31.8751 46.5828 31.7369 46.5828ZM41.0246 46.5828C40.7368 46.5828 40.5123 46.4504 40.3511 46.1856C40.19 45.9093 40.1094 45.6446 40.1094 45.3913C40.1094 44.7006 40.6101 43.7336 41.6117 42.4903C42.6247 41.2355 43.442 40.6082 44.0637 40.6082C44.6508 40.6082 44.9443 40.919 44.9443 41.5406C44.9443 41.6327 44.9328 41.7306 44.9098 41.8342C44.8983 41.9378 44.881 42.0471 44.858 42.1622C44.881 42.1968 44.9386 42.2141 45.0307 42.2141C45.3415 42.2141 45.7099 42.1047 46.1358 41.886C46.1243 42.0817 45.6696 42.3637 44.7717 42.7321C44.8983 43.112 44.5184 43.8372 43.632 44.9078C42.7226 46.0245 41.9455 46.5828 41.3008 46.5828H41.0246ZM41.3354 46.0648C41.8304 46.0648 42.4635 45.61 43.2348 44.7006C43.9831 43.8142 44.3572 43.1753 44.3572 42.7839C44.173 42.6803 43.9428 42.4155 43.6665 41.9896C43.2751 41.9896 42.711 42.4616 41.9743 43.4055C41.249 44.3265 40.8979 45.0345 40.921 45.5295C40.9325 45.8863 41.0706 46.0648 41.3354 46.0648ZM47.936 46.6519C47.5676 46.6519 47.274 46.5655 47.0553 46.3928C46.8481 46.2087 46.7445 45.8863 46.7445 45.4259C46.7445 45.1611 46.8251 44.8272 46.9862 44.4243C47.1474 44.0099 47.3489 43.5667 47.5906 43.0947C47.8324 42.6227 48.0741 42.1565 48.3159 41.696C48.1662 41.7306 48.0338 41.7478 47.9187 41.7478C47.5734 41.7478 47.4007 41.6154 47.4007 41.3507C47.4007 41.224 47.4467 41.1262 47.5388 41.0571C47.6424 40.988 47.7345 40.9478 47.8151 40.9362C47.8151 40.9362 47.8266 40.9362 47.8496 40.9362C47.8842 40.9362 47.9245 40.9305 47.9705 40.919H48.972C49.1793 40.6542 49.3922 40.3722 49.6109 40.0729C49.9218 39.6814 50.1693 39.4512 50.3535 39.3821H50.4053C50.4858 39.3821 50.601 39.4224 50.7506 39.503C50.9348 39.6066 51.0269 39.7102 51.0269 39.8138C51.0269 39.9635 50.7506 40.3491 50.198 40.9708C50.3017 40.9823 50.4513 40.988 50.647 40.988C50.8427 40.988 51.0845 40.988 51.3723 40.988C51.5104 40.988 51.7061 40.988 51.9594 40.988C52.2241 40.988 52.4947 40.988 52.7709 40.988C53.0587 40.9765 53.3062 40.9708 53.5135 40.9708C53.7207 40.9593 53.8358 40.9535 53.8588 40.9535C53.8933 40.965 53.9106 40.9823 53.9106 41.0053C53.9106 41.1089 53.2314 41.2471 51.873 41.4197C51.1017 41.5233 50.5089 41.6039 50.0944 41.6615C49.6915 41.719 49.4728 41.7536 49.4383 41.7651C49.2771 41.9032 49.0814 42.1392 48.8512 42.4731C48.6209 42.8069 48.3907 43.181 48.1605 43.5955C47.9302 44.0099 47.7345 44.4071 47.5734 44.7869C47.4237 45.1553 47.3489 45.4431 47.3489 45.6503C47.3489 45.8345 47.4179 45.9899 47.5561 46.1166C47.6942 46.2317 47.9187 46.2892 48.2295 46.2892C48.4367 46.2892 48.6842 46.2432 48.972 46.1511C49.2598 46.059 49.5304 45.9554 49.7836 45.8403C50.0484 45.7136 50.2383 45.6158 50.3535 45.5467C50.6528 45.3625 50.9809 45.1208 51.3377 44.8215C51.7061 44.5107 52.0687 44.1596 52.4256 43.7681C52.5868 43.607 52.6961 43.5264 52.7537 43.5264C52.7882 43.5264 52.8055 43.5494 52.8055 43.5955C52.8055 43.6876 52.7191 43.8372 52.5465 44.0444C52.2702 44.3783 51.9594 44.7006 51.614 45.0114C51.2802 45.3107 50.906 45.587 50.4916 45.8403C50.0196 46.1281 49.5649 46.3353 49.1274 46.4619C48.7015 46.5885 48.3044 46.6519 47.936 46.6519ZM57.5347 40.6082C57.339 40.6082 57.1663 40.5448 57.0166 40.4182C56.8785 40.2916 56.8094 40.1477 56.8094 39.9865C56.8094 39.6642 57.0282 39.503 57.4656 39.503C57.6268 39.503 57.7879 39.5606 57.9491 39.6757C58.1103 39.7793 58.1909 39.9117 58.1909 40.0729C58.1909 40.211 58.116 40.3376 57.9664 40.4527C57.8167 40.5563 57.6728 40.6082 57.5347 40.6082ZM54.3401 46.7382C54.0869 46.7382 53.8797 46.6576 53.7185 46.4965C53.5458 46.3238 53.4595 46.0245 53.4595 45.5985C53.4595 45.3568 53.5171 45.0805 53.6322 44.7697C53.7358 44.4473 53.8682 44.125 54.0293 43.8027C54.202 43.4804 54.3689 43.1926 54.5301 42.9393C55.1748 41.8917 55.7043 41.3622 56.1187 41.3507C56.2223 41.3507 56.349 41.3967 56.4986 41.4888C56.6483 41.5694 56.7231 41.6615 56.7231 41.7651C56.7231 41.7651 56.2856 42.3292 55.4107 43.4573C54.5474 44.574 54.1157 45.3683 54.1157 45.8403C54.1157 46.2087 54.2596 46.3928 54.5474 46.3928C54.7316 46.3928 54.9675 46.318 55.2553 46.1684C55.5546 46.0072 55.8655 45.8057 56.1878 45.564C56.5101 45.3222 56.8152 45.0632 57.103 44.7869C57.4023 44.5107 57.644 44.2574 57.8282 44.0272C57.9434 43.8775 58.0412 43.7739 58.1218 43.7163C58.2139 43.6588 58.2714 43.63 58.2945 43.63C58.3405 43.63 58.3635 43.6645 58.3635 43.7336C58.3635 43.7912 58.2945 43.9063 58.1563 44.079C58.0297 44.2516 57.8513 44.4531 57.621 44.6833C57.3447 44.9596 57.0397 45.2589 56.7058 45.5813C56.372 45.9036 56.0094 46.1799 55.618 46.4101C55.2266 46.6288 54.8006 46.7382 54.3401 46.7382ZM60.0832 46.5828C59.7954 46.5828 59.5709 46.4504 59.4097 46.1856C59.2486 45.9093 59.168 45.6446 59.168 45.3913C59.168 44.7006 59.6687 43.7336 60.6703 42.4903C61.6833 41.2355 62.5006 40.6082 63.1223 40.6082C63.7094 40.6082 64.0029 40.919 64.0029 41.5406C64.0029 41.6327 63.9914 41.7306 63.9684 41.8342C63.9569 41.9378 63.9396 42.0471 63.9166 42.1622C63.9396 42.1968 63.9972 42.2141 64.0893 42.2141C64.4001 42.2141 64.7685 42.1047 65.1944 41.886C65.1829 42.0817 64.7282 42.3637 63.8303 42.7321C63.9569 43.112 63.577 43.8372 62.6906 44.9078C61.7812 46.0245 61.0041 46.5828 60.3594 46.5828H60.0832ZM60.394 46.0648C60.889 46.0648 61.5221 45.61 62.2934 44.7006C63.0417 43.8142 63.4158 43.1753 63.4158 42.7839C63.2316 42.6803 63.0014 42.4155 62.7251 41.9896C62.3337 41.9896 61.7696 42.4616 61.0329 43.4055C60.3076 44.3265 59.9565 45.0345 59.9796 45.5295C59.9911 45.8863 60.1292 46.0648 60.394 46.0648ZM70.3272 46.5828C70.0164 46.5828 69.7977 46.4965 69.6711 46.3238C69.5444 46.1396 69.4811 45.9151 69.4811 45.6503C69.4811 44.9826 69.7114 44.2689 70.1718 43.5091L71.277 41.7133C70.4942 42.2889 69.7171 43.0084 68.9458 43.8718C68.7386 44.102 68.5026 44.3725 68.2379 44.6833C67.9846 44.9942 67.7026 45.351 67.3917 45.7539C66.9773 46.295 66.7298 46.5655 66.6492 46.5655C66.4881 46.5655 66.3557 46.4965 66.2521 46.3583C66.1485 46.2087 66.0967 46.0763 66.0967 45.9612C66.0967 45.8691 66.1254 45.7021 66.183 45.4604C66.2405 45.2071 66.3096 44.9884 66.3902 44.8042C66.4708 44.6085 66.5514 44.4186 66.632 44.2344C66.724 44.0387 66.8104 43.8487 66.891 43.6645L65.8549 44.7524C65.8319 44.7754 65.7628 44.8445 65.6477 44.9596C65.5326 45.0747 65.4405 45.1323 65.3714 45.1323C65.3138 45.1323 65.2851 45.092 65.2851 45.0114C65.2851 44.9884 65.2966 44.9596 65.3196 44.9251C65.3311 44.879 65.3656 44.8272 65.4232 44.7697C65.5959 44.597 65.7743 44.4128 65.9585 44.2171C66.1427 44.0214 66.3326 43.7969 66.5283 43.5437C66.632 43.417 66.7874 43.2271 66.9946 42.9738C67.2018 42.7091 67.4263 42.427 67.668 42.1277C67.9213 41.8284 68.1573 41.5521 68.376 41.2989C68.4336 41.2183 68.4969 41.1665 68.5659 41.1435C68.635 41.1089 68.6811 41.0916 68.7041 41.0916C69.0149 41.0916 69.1703 41.2125 69.1703 41.4543C69.1703 41.5233 69.153 41.5924 69.1185 41.6615C68.0824 43.089 67.4608 44.1768 67.2536 44.9251C68.589 43.5897 69.6596 42.5882 70.4654 41.9205C71.2827 41.2413 71.8641 40.9017 72.2094 40.9017C72.3936 40.9017 72.5318 40.9305 72.6239 40.988C72.7275 41.0456 72.7793 41.155 72.7793 41.3161C72.7793 41.3737 72.7735 41.4197 72.762 41.4543C72.7275 41.5349 72.4915 41.8572 72.054 42.4213C71.7893 42.7436 71.5533 43.0371 71.346 43.3019C71.1503 43.5667 70.9892 43.7969 70.8625 43.9926C70.6553 44.315 70.4999 44.62 70.3963 44.9078C70.2927 45.1841 70.2409 45.4201 70.2409 45.6158C70.2409 45.6964 70.2524 45.7942 70.2754 45.9093C70.2985 46.0245 70.3675 46.082 70.4827 46.082C70.7474 46.082 71.1619 45.8518 71.7259 45.3913C71.9907 45.1611 72.2382 44.9308 72.4684 44.7006C72.6987 44.4589 72.9174 44.2229 73.1246 43.9926C73.1707 43.9466 73.2455 43.8602 73.3491 43.7336C73.4527 43.5955 73.516 43.5264 73.539 43.5264C73.5851 43.5264 73.6081 43.5724 73.6081 43.6645C73.6081 43.7106 73.5793 43.7912 73.5218 43.9063C73.4757 44.0099 73.4239 44.0905 73.3664 44.148C73.2397 44.2977 73.0498 44.5049 72.7965 44.7697C72.5548 45.0345 72.2785 45.305 71.9677 45.5813C71.6684 45.8575 71.3748 46.0935 71.087 46.2892C70.7992 46.4849 70.546 46.5828 70.3272 46.5828ZM76.601 46.5828C76.0599 46.5828 75.657 46.4044 75.3922 46.0475C75.139 45.6906 74.9318 45.1956 74.7706 44.5625C74.5634 44.7697 74.4195 44.8733 74.3389 44.8733C74.2813 44.8733 74.2526 44.8272 74.2526 44.7351C74.2526 44.6661 74.2813 44.6028 74.3389 44.5452C74.3389 44.5452 74.4828 44.3668 74.7706 44.0099C75.0699 43.653 75.5707 43.1523 76.2729 42.5076L78.4486 40.47C78.7479 40.1822 78.9839 39.9635 79.1566 39.8138C79.3408 39.6642 79.4732 39.5894 79.5538 39.5894C79.9221 39.5894 80.1063 39.7275 80.1063 40.0038C80.1063 40.1419 80.0315 40.3031 79.8818 40.4873C79.7667 40.6254 79.6804 40.7348 79.6228 40.8154C79.5768 40.8844 79.548 40.9247 79.5365 40.9362C79.3293 41.2931 79.1393 41.932 78.9667 42.853C78.84 43.5322 78.7307 44.0905 78.6386 44.5279C78.5465 44.9654 78.4716 45.282 78.4141 45.4777C78.8976 45.4661 79.3753 45.3165 79.8473 45.0287C80.3193 44.7409 80.8258 44.2689 81.3669 43.6127C81.3899 43.5897 81.4244 43.5552 81.4705 43.5091C81.5165 43.4631 81.5626 43.4401 81.6086 43.4401C81.6777 43.4401 81.7122 43.4688 81.7122 43.5264C81.7122 43.584 81.695 43.6415 81.6604 43.6991C81.6259 43.7566 81.5914 43.8084 81.5568 43.8545C81.1999 44.2804 80.8661 44.6315 80.5553 44.9078C80.2445 45.1726 79.9164 45.3856 79.571 45.5467C79.2257 45.6964 78.817 45.823 78.345 45.9266L77.7924 46.2892C77.6428 46.3928 77.4644 46.4677 77.2571 46.5137C77.0499 46.5598 76.8312 46.5828 76.601 46.5828ZM76.8082 45.7021C77.073 45.7021 77.2917 45.6388 77.4644 45.5122C77.591 45.4431 77.7119 45.2532 77.827 44.9424C77.9536 44.62 78.0745 44.2229 78.1896 43.7509C78.2817 43.348 78.3508 42.9566 78.3968 42.5767C78.4544 42.1853 78.5062 41.8111 78.5522 41.4543L78.6213 40.8672C78.3565 41.0629 78.0227 41.3449 77.6198 41.7133C77.2169 42.0817 76.8197 42.4673 76.4283 42.8702C76.0369 43.2731 75.7836 43.5724 75.6685 43.7681C75.5534 43.9523 75.4901 44.0905 75.4786 44.1826C75.4325 44.643 75.5419 45.0114 75.8067 45.2877C76.0829 45.564 76.4168 45.7021 76.8082 45.7021ZM87.5076 50.0881C87.1622 50.0881 86.8687 49.9442 86.6269 49.6565C86.3852 49.3687 86.2585 49.0578 86.247 48.724C86.2816 48.5859 86.3334 48.5168 86.4024 48.5168C86.4715 48.5168 86.5118 48.6031 86.5233 48.7758C86.5348 48.96 86.6269 49.1384 86.7996 49.3111C86.9723 49.4838 87.1392 49.5701 87.3004 49.5701C87.9681 49.5701 88.6703 49.1384 89.407 48.275C89.6718 47.9642 89.9423 47.5958 90.2186 47.1699C90.5064 46.7555 90.7827 46.2835 91.0475 45.7539L91.9109 44.0444L90.6158 45.3568C90.2129 45.7597 89.8617 46.059 89.5624 46.2547C89.2746 46.4504 89.0502 46.5483 88.889 46.5483C88.6127 46.5483 88.3364 46.4504 88.0601 46.2547C87.7839 46.0475 87.6285 45.8115 87.5939 45.5467C87.4788 44.6603 88.0371 43.607 89.2689 42.3867C90.5007 41.178 91.6 40.5736 92.567 40.5736C92.8318 40.5736 93.039 40.6369 93.1887 40.7636C93.2693 40.8326 93.3268 40.9362 93.3613 41.0744C93.4074 41.2125 93.4419 41.2816 93.465 41.2816C93.511 41.2816 93.5513 41.2758 93.5858 41.2643C93.6204 41.2413 93.6607 41.2298 93.7067 41.2298C93.8564 41.2298 93.9772 41.2816 94.0693 41.3852C94.1729 41.4888 94.2075 41.5924 94.1729 41.696C94.1614 41.7996 93.9945 42.1104 93.6722 42.6285C93.465 42.9738 93.229 43.394 92.9642 43.889C92.6994 44.3725 92.4174 44.879 92.1181 45.4086C91.8303 45.9266 91.5482 46.4101 91.2719 46.8591C90.9957 47.3195 90.7482 47.6937 90.5294 47.9815C89.4703 49.3859 88.4631 50.0881 87.5076 50.0881ZM88.7336 46.1511C89.4013 46.1511 90.3107 45.4201 91.4619 43.9581L93.2923 41.437C93.2232 41.2758 93.0793 41.1953 92.8606 41.1953C92.1468 41.1953 91.1914 41.7593 89.9941 42.8875C88.7509 44.0617 88.1925 45.0114 88.3192 45.7367C88.3767 46.013 88.5149 46.1511 88.7336 46.1511ZM96.696 46.7727C96.3277 46.7727 95.9938 46.6576 95.6945 46.4274C95.3952 46.1856 95.2455 45.8691 95.2455 45.4777C95.2455 44.6603 95.7463 43.7279 96.7478 42.6803C97.7724 41.6212 98.6876 41.0916 99.4934 41.0916C99.7582 41.0916 99.9712 41.1665 100.132 41.3161C100.305 41.4543 100.391 41.6269 100.391 41.8342C100.391 42.4788 99.8791 43.112 98.8545 43.7336C97.9451 44.2862 97.1795 44.5625 96.5579 44.5625C96.4658 44.5625 96.3852 44.551 96.3161 44.5279C96.1435 44.8387 96.0571 45.1668 96.0571 45.5122C96.0571 46.1108 96.3392 46.4101 96.9033 46.4101C97.4788 46.4101 98.2214 46.0245 99.1308 45.2532C99.833 44.6891 100.432 44.0905 100.927 43.4573C101.03 43.3192 101.122 43.2501 101.203 43.2501C101.272 43.2501 101.307 43.2847 101.307 43.3537C101.307 43.4228 101.26 43.5206 101.168 43.6473C100.846 44.0732 100.501 44.4646 100.132 44.8215C99.7639 45.1783 99.3668 45.5064 98.9408 45.8057C98.0544 46.4504 97.3062 46.7727 96.696 46.7727ZM96.7996 44.1826C97.2371 44.1826 97.8069 43.9638 98.5092 43.5264C98.7394 43.3652 98.9639 43.1868 99.1826 42.9911C99.4128 42.7839 99.597 42.5767 99.7352 42.3695C99.8848 42.1622 99.9596 41.9781 99.9596 41.8169C99.9596 41.6672 99.8388 41.5924 99.597 41.5924C99.2517 41.5924 98.7682 41.8514 98.1465 42.3695C97.8472 42.6227 97.5594 42.899 97.2831 43.1983C97.0069 43.4976 96.7709 43.8142 96.5752 44.148C96.6442 44.1711 96.7191 44.1826 96.7996 44.1826ZM106.38 46.5828C106.07 46.5828 105.851 46.4965 105.724 46.3238C105.598 46.1396 105.534 45.9151 105.534 45.6503C105.534 44.9826 105.765 44.2689 106.225 43.5091L107.33 41.7133C106.547 42.2889 105.77 43.0084 104.999 43.8718C104.792 44.102 104.556 44.3725 104.291 44.6833C104.038 44.9942 103.756 45.351 103.445 45.7539C103.03 46.295 102.783 46.5655 102.702 46.5655C102.541 46.5655 102.409 46.4965 102.305 46.3583C102.202 46.2087 102.15 46.0763 102.15 45.9612C102.15 45.8691 102.179 45.7021 102.236 45.4604C102.294 45.2071 102.363 44.9884 102.443 44.8042C102.524 44.6085 102.605 44.4186 102.685 44.2344C102.777 44.0387 102.864 43.8487 102.944 43.6645L101.908 44.7524C101.885 44.7754 101.816 44.8445 101.701 44.9596C101.586 45.0747 101.494 45.1323 101.425 45.1323C101.367 45.1323 101.338 45.092 101.338 45.0114C101.338 44.9884 101.35 44.9596 101.373 44.9251C101.384 44.879 101.419 44.8272 101.476 44.7697C101.649 44.597 101.827 44.4128 102.012 44.2171C102.196 44.0214 102.386 43.7969 102.582 43.5437C102.685 43.417 102.841 43.2271 103.048 42.9738C103.255 42.7091 103.479 42.427 103.721 42.1277C103.974 41.8284 104.21 41.5521 104.429 41.2989C104.487 41.2183 104.55 41.1665 104.619 41.1435C104.688 41.1089 104.734 41.0916 104.757 41.0916C105.068 41.0916 105.223 41.2125 105.223 41.4543C105.223 41.5233 105.206 41.5924 105.172 41.6615C104.136 43.089 103.514 44.1768 103.307 44.9251C104.642 43.5897 105.713 42.5882 106.519 41.9205C107.336 41.2413 107.917 40.9017 108.263 40.9017C108.447 40.9017 108.585 40.9305 108.677 40.988C108.781 41.0456 108.832 41.155 108.832 41.3161C108.832 41.3737 108.827 41.4197 108.815 41.4543C108.781 41.5349 108.545 41.8572 108.107 42.4213C107.842 42.7436 107.606 43.0371 107.399 43.3019C107.204 43.5667 107.042 43.7969 106.916 43.9926C106.708 44.315 106.553 44.62 106.449 44.9078C106.346 45.1841 106.294 45.4201 106.294 45.6158C106.294 45.6964 106.306 45.7942 106.329 45.9093C106.352 46.0245 106.421 46.082 106.536 46.082C106.801 46.082 107.215 45.8518 107.779 45.3913C108.044 45.1611 108.291 44.9308 108.522 44.7006C108.752 44.4589 108.971 44.2229 109.178 43.9926C109.224 43.9466 109.299 43.8602 109.402 43.7336C109.506 43.5955 109.569 43.5264 109.592 43.5264C109.638 43.5264 109.661 43.5724 109.661 43.6645C109.661 43.7106 109.633 43.7912 109.575 43.9063C109.529 44.0099 109.477 44.0905 109.42 44.148C109.293 44.2977 109.103 44.5049 108.85 44.7697C108.608 45.0345 108.332 45.305 108.021 45.5813C107.722 45.8575 107.428 46.0935 107.14 46.2892C106.852 46.4849 106.599 46.5828 106.38 46.5828ZM111.549 46.7727C111.181 46.7727 110.847 46.6576 110.547 46.4274C110.248 46.1856 110.099 45.8691 110.099 45.4777C110.099 44.6603 110.599 43.7279 111.601 42.6803C112.625 41.6212 113.541 41.0916 114.346 41.0916C114.611 41.0916 114.824 41.1665 114.985 41.3161C115.158 41.4543 115.244 41.6269 115.244 41.8342C115.244 42.4788 114.732 43.112 113.707 43.7336C112.798 44.2862 112.032 44.5625 111.411 44.5625C111.319 44.5625 111.238 44.551 111.169 44.5279C110.996 44.8387 110.91 45.1668 110.91 45.5122C110.91 46.1108 111.192 46.4101 111.756 46.4101C112.332 46.4101 113.074 46.0245 113.984 45.2532C114.686 44.6891 115.285 44.0905 115.78 43.4573C115.883 43.3192 115.975 43.2501 116.056 43.2501C116.125 43.2501 116.159 43.2847 116.159 43.3537C116.159 43.4228 116.113 43.5206 116.021 43.6473C115.699 44.0732 115.354 44.4646 114.985 44.8215C114.617 45.1783 114.22 45.5064 113.794 45.8057C112.907 46.4504 112.159 46.7727 111.549 46.7727ZM111.653 44.1826C112.09 44.1826 112.66 43.9638 113.362 43.5264C113.592 43.3652 113.817 43.1868 114.036 42.9911C114.266 42.7839 114.45 42.5767 114.588 42.3695C114.738 42.1622 114.813 41.9781 114.813 41.8169C114.813 41.6672 114.692 41.5924 114.45 41.5924C114.105 41.5924 113.621 41.8514 112.999 42.3695C112.7 42.6227 112.412 42.899 112.136 43.1983C111.86 43.4976 111.624 43.8142 111.428 44.148C111.497 44.1711 111.572 44.1826 111.653 44.1826ZM120.353 46.6346C119.858 46.6346 119.518 46.508 119.334 46.2547C119.15 45.9899 119.058 45.6388 119.058 45.2014C119.058 44.7179 119.207 44.1423 119.507 43.4746C119.622 43.2098 119.743 42.9738 119.869 42.7666C119.996 42.5479 120.128 42.3464 120.266 42.1622C120.22 42.1738 120.18 42.1795 120.146 42.1795C120.111 42.1795 120.076 42.1795 120.042 42.1795C119.766 42.1795 119.535 41.9838 119.351 41.5924L118.073 43.2501C117.394 44.1365 116.98 44.5797 116.83 44.5797C116.773 44.5797 116.744 44.5567 116.744 44.5107C116.744 44.4531 116.773 44.3783 116.83 44.2862C116.865 44.2171 116.934 44.125 117.037 44.0099C117.475 43.5034 117.878 43.0026 118.246 42.5076C118.614 42.0126 118.919 41.5291 119.161 41.0571C119.426 40.0556 119.76 39.5548 120.163 39.5548C120.428 39.5548 120.56 39.6757 120.56 39.9174C120.56 40.1362 120.416 40.424 120.128 40.7808C119.852 41.1377 119.714 41.3219 119.714 41.3334C119.714 41.5751 119.892 41.696 120.249 41.696C120.456 41.696 120.687 41.6212 120.94 41.4715L121.389 41.1953C121.412 41.1837 121.446 41.178 121.492 41.178C121.631 41.178 121.751 41.2355 121.855 41.3507C121.959 41.4658 121.993 41.5694 121.959 41.6615L120.767 43.1638C120.03 44.1077 119.662 44.8675 119.662 45.4431C119.662 45.9612 119.915 46.2202 120.422 46.2202C120.767 46.2202 121.136 46.1166 121.527 45.9093C121.93 45.7021 122.315 45.4489 122.684 45.1496C123.064 44.8387 123.38 44.5394 123.634 44.2516L124.048 43.7681C124.071 43.7451 124.1 43.7163 124.134 43.6818C124.169 43.6473 124.198 43.63 124.221 43.63C124.301 43.63 124.342 43.6703 124.342 43.7509C124.342 43.7739 124.33 43.8142 124.307 43.8718C124.284 43.9293 124.244 43.9926 124.186 44.0617L123.634 44.6833C123.369 44.9826 123.041 45.2877 122.649 45.5985C122.269 45.8978 121.872 46.1453 121.458 46.341C121.055 46.5367 120.687 46.6346 120.353 46.6346ZM126.51 46.6346C126.233 46.6346 125.957 46.5367 125.681 46.341C125.404 46.1453 125.249 45.9151 125.215 45.6503C125.099 44.7639 125.658 43.7106 126.89 42.4903C128.11 41.2701 129.209 40.66 130.188 40.66C130.452 40.66 130.66 40.7233 130.809 40.8499C130.89 40.9305 130.947 41.0398 130.982 41.178C131.028 41.3161 131.063 41.3852 131.086 41.3852C131.132 41.3852 131.172 41.3794 131.206 41.3679C131.241 41.3449 131.281 41.3334 131.327 41.3334C131.465 41.3334 131.586 41.3852 131.69 41.4888C131.794 41.5924 131.851 41.6845 131.863 41.7651C131.874 41.7881 131.506 42.3579 130.757 43.4746C130.009 44.5682 129.67 45.3107 129.739 45.7021C129.796 45.9669 129.923 46.0993 130.119 46.0993C130.717 46.0993 131.811 45.1093 133.399 43.1292C133.434 43.0832 133.469 43.0602 133.503 43.0602C133.561 43.0602 133.589 43.1005 133.589 43.181C133.589 43.2731 133.538 43.3883 133.434 43.5264C131.972 45.4949 130.85 46.4792 130.067 46.4792C129.963 46.4792 129.865 46.4619 129.773 46.4274C129.267 46.2317 129.013 45.8518 129.013 45.2877C129.013 45.092 129.036 44.8963 129.083 44.7006L128.012 45.7367C127.69 46.059 127.396 46.2892 127.131 46.4274C126.878 46.5655 126.671 46.6346 126.51 46.6346ZM126.354 46.2547C127.022 46.2547 127.931 45.5237 129.083 44.0617L130.913 41.5406C130.821 41.3794 130.671 41.2989 130.464 41.2989C129.762 41.2989 128.812 41.8629 127.615 42.9911C126.371 44.1423 125.813 45.092 125.94 45.8403C125.997 46.1166 126.135 46.2547 126.354 46.2547ZM135.266 46.6519C134.898 46.6519 134.604 46.5655 134.386 46.3928C134.178 46.2087 134.075 45.8863 134.075 45.4259C134.075 45.1611 134.155 44.8272 134.317 44.4243C134.478 44.0099 134.679 43.5667 134.921 43.0947C135.163 42.6227 135.404 42.1565 135.646 41.696C135.496 41.7306 135.364 41.7478 135.249 41.7478C134.904 41.7478 134.731 41.6154 134.731 41.3507C134.731 41.224 134.777 41.1262 134.869 41.0571C134.973 40.988 135.065 40.9478 135.145 40.9362C135.145 40.9362 135.157 40.9362 135.18 40.9362C135.214 40.9362 135.255 40.9305 135.301 40.919H136.302C136.51 40.6542 136.722 40.3722 136.941 40.0729C137.252 39.6814 137.5 39.4512 137.684 39.3821H137.736C137.816 39.3821 137.931 39.4224 138.081 39.503C138.265 39.6066 138.357 39.7102 138.357 39.8138C138.357 39.9635 138.081 40.3491 137.528 40.9708C137.632 40.9823 137.782 40.988 137.977 40.988C138.173 40.988 138.415 40.988 138.703 40.988C138.841 40.988 139.036 40.988 139.29 40.988C139.554 40.988 139.825 40.988 140.101 40.988C140.389 40.9765 140.637 40.9708 140.844 40.9708C141.051 40.9593 141.166 40.9535 141.189 40.9535C141.224 40.965 141.241 40.9823 141.241 41.0053C141.241 41.1089 140.562 41.2471 139.203 41.4197C138.432 41.5233 137.839 41.6039 137.425 41.6615C137.022 41.719 136.803 41.7536 136.769 41.7651C136.607 41.9032 136.412 42.1392 136.181 42.4731C135.951 42.8069 135.721 43.181 135.491 43.5955C135.26 44.0099 135.065 44.4071 134.904 44.7869C134.754 45.1553 134.679 45.4431 134.679 45.6503C134.679 45.8345 134.748 45.9899 134.886 46.1166C135.025 46.2317 135.249 46.2892 135.56 46.2892C135.767 46.2892 136.015 46.2432 136.302 46.1511C136.59 46.059 136.861 45.9554 137.114 45.8403C137.379 45.7136 137.569 45.6158 137.684 45.5467C137.983 45.3625 138.311 45.1208 138.668 44.8215C139.036 44.5107 139.399 44.1596 139.756 43.7681C139.917 43.607 140.026 43.5264 140.084 43.5264C140.118 43.5264 140.136 43.5494 140.136 43.5955C140.136 43.6876 140.049 43.8372 139.877 44.0444C139.6 44.3783 139.29 44.7006 138.944 45.0114C138.61 45.3107 138.236 45.587 137.822 45.8403C137.35 46.1281 136.895 46.3353 136.458 46.4619C136.032 46.5885 135.635 46.6519 135.266 46.6519ZM141.791 46.5828C141.503 46.5828 141.279 46.4504 141.118 46.1856C140.957 45.9093 140.876 45.6446 140.876 45.3913C140.876 44.7006 141.377 43.7336 142.378 42.4903C143.391 41.2355 144.209 40.6082 144.83 40.6082C145.418 40.6082 145.711 40.919 145.711 41.5406C145.711 41.6327 145.7 41.7306 145.677 41.8342C145.665 41.9378 145.648 42.0471 145.625 42.1622C145.648 42.1968 145.705 42.2141 145.797 42.2141C146.108 42.2141 146.477 42.1047 146.903 41.886C146.891 42.0817 146.436 42.3637 145.538 42.7321C145.665 43.112 145.285 43.8372 144.399 44.9078C143.489 46.0245 142.712 46.5828 142.068 46.5828H141.791ZM142.102 46.0648C142.597 46.0648 143.23 45.61 144.002 44.7006C144.75 43.8142 145.124 43.1753 145.124 42.7839C144.94 42.6803 144.71 42.4155 144.433 41.9896C144.042 41.9896 143.478 42.4616 142.741 43.4055C142.016 44.3265 141.665 45.0345 141.688 45.5295C141.699 45.8863 141.837 46.0648 142.102 46.0648ZM151.155 46.6346C150.66 46.6346 150.32 46.508 150.136 46.2547C149.952 45.9899 149.86 45.6388 149.86 45.2014C149.86 44.7179 150.009 44.1423 150.309 43.4746C150.424 43.2098 150.545 42.9738 150.671 42.7666C150.798 42.5479 150.93 42.3464 151.068 42.1622C151.022 42.1738 150.982 42.1795 150.948 42.1795C150.913 42.1795 150.878 42.1795 150.844 42.1795C150.568 42.1795 150.337 41.9838 150.153 41.5924L148.875 43.2501C148.196 44.1365 147.782 44.5797 147.632 44.5797C147.575 44.5797 147.546 44.5567 147.546 44.5107C147.546 44.4531 147.575 44.3783 147.632 44.2862C147.667 44.2171 147.736 44.125 147.839 44.0099C148.277 43.5034 148.68 43.0026 149.048 42.5076C149.416 42.0126 149.722 41.5291 149.963 41.0571C150.228 40.0556 150.562 39.5548 150.965 39.5548C151.23 39.5548 151.362 39.6757 151.362 39.9174C151.362 40.1362 151.218 40.424 150.93 40.7808C150.654 41.1377 150.516 41.3219 150.516 41.3334C150.516 41.5751 150.694 41.696 151.051 41.696C151.258 41.696 151.489 41.6212 151.742 41.4715L152.191 41.1953C152.214 41.1837 152.248 41.178 152.294 41.178C152.433 41.178 152.553 41.2355 152.657 41.3507C152.761 41.4658 152.795 41.5694 152.761 41.6615L151.569 43.1638C150.832 44.1077 150.464 44.8675 150.464 45.4431C150.464 45.9612 150.717 46.2202 151.224 46.2202C151.569 46.2202 151.938 46.1166 152.329 45.9093C152.732 45.7021 153.117 45.4489 153.486 45.1496C153.866 44.8387 154.182 44.5394 154.436 44.2516L154.85 43.7681C154.873 43.7451 154.902 43.7163 154.936 43.6818C154.971 43.6473 155 43.63 155.023 43.63C155.103 43.63 155.144 43.6703 155.144 43.7509C155.144 43.7739 155.132 43.8142 155.109 43.8718C155.086 43.9293 155.046 43.9926 154.988 44.0617L154.436 44.6833C154.171 44.9826 153.843 45.2877 153.451 45.5985C153.071 45.8978 152.674 46.1453 152.26 46.341C151.857 46.5367 151.489 46.6346 151.155 46.6346Z" fill="white"/>
<g clip-path="url(#clip0_968_20371)">
<path fill-rule="evenodd" clip-rule="evenodd" d="M48.341 0C50.9425 0 53.2838 0.948574 54.9629 2.50079C56.6657 4.053 57.7062 6.18729 57.7062 8.53717C57.7062 10.887 56.6657 13.0429 54.9629 14.5735C53.2601 16.1258 50.9188 17.0743 48.341 17.0743C45.7396 17.0743 43.3983 16.1258 41.7191 14.5735C39.9927 13.0429 38.9521 10.9086 38.9521 8.55872C38.9521 6.20885 39.9927 4.053 41.6955 2.52234C43.3983 0.948574 45.7396 0 48.341 0ZM48.8377 8.49405C48.8377 8.3647 48.7904 8.23535 48.6721 8.12755C48.5539 8.01976 48.412 7.97664 48.2701 7.97664C48.1282 7.97664 47.9863 8.01976 47.868 8.12755C47.7498 8.23535 47.7025 8.3647 47.7025 8.49405C47.7025 8.6234 47.7498 8.75275 47.868 8.86054C47.9863 8.96834 48.1282 9.01145 48.2701 9.01145C48.412 9.01145 48.5539 8.96834 48.6721 8.86054C48.7904 8.75275 48.8377 8.6234 48.8377 8.49405ZM46.6619 6.51067C46.52 6.51067 46.3781 6.55378 46.2599 6.66158C46.1416 6.76937 46.0943 6.89872 46.0943 7.02807C46.0943 7.15742 46.1416 7.28677 46.2599 7.39457C46.3781 7.50236 46.52 7.54548 46.6619 7.54548C46.8038 7.54548 46.9457 7.50236 47.0639 7.39457C47.1822 7.28677 47.2295 7.15742 47.2295 7.02807C47.2295 6.89872 47.1822 6.76937 47.0639 6.66158C46.9457 6.55378 46.8038 6.51067 46.6619 6.51067ZM45.5504 8.19223C45.4558 8.27846 45.3848 8.40781 45.3848 8.55872C45.3848 8.68808 45.4558 8.81743 45.5504 8.92522C45.645 9.01145 45.7869 9.07613 45.9524 9.07613C46.118 9.07613 46.2362 9.01145 46.3545 8.92522C46.4491 8.83899 46.52 8.70963 46.52 8.55872C46.52 8.40781 46.4491 8.30002 46.3545 8.19223C46.2599 8.106 46.118 8.04132 45.9524 8.04132C45.8105 8.04132 45.6686 8.106 45.5504 8.19223ZM46.0943 10.0894C46.0943 10.2187 46.1416 10.3481 46.2599 10.4559C46.3781 10.5637 46.52 10.6068 46.6619 10.6068C46.8038 10.6068 46.9457 10.5637 47.0639 10.4559C47.1822 10.3481 47.2295 10.2187 47.2295 10.0894C47.2295 9.96003 47.1822 9.83068 47.0639 9.72288C46.9457 9.61509 46.8038 9.57197 46.6619 9.57197C46.52 9.57197 46.3781 9.61509 46.2599 9.72288C46.1416 9.83068 46.0943 9.96003 46.0943 10.0894ZM47.939 11.0811C48.0336 11.1673 48.1755 11.232 48.341 11.232C48.4829 11.232 48.6248 11.1673 48.7431 11.0811C48.8377 10.9948 48.9086 10.8655 48.9086 10.7146C48.9086 10.5852 48.8377 10.4559 48.7431 10.3481C48.6485 10.2618 48.5066 10.1972 48.341 10.1972C48.1755 10.1972 48.0572 10.2618 47.939 10.3481C47.8444 10.4343 47.7734 10.5637 47.7734 10.7146C47.7734 10.8655 47.8444 10.9948 47.939 11.0811ZM50.0201 10.5852C50.162 10.5852 50.3039 10.5421 50.4222 10.4343C50.5404 10.3265 50.5877 10.1972 50.5877 10.0678C50.5877 9.93847 50.5404 9.80912 50.4222 9.70132C50.3039 9.59353 50.162 9.55042 50.0201 9.55042C49.8782 9.55042 49.7363 9.59353 49.6181 9.70132C49.4998 9.80912 49.4526 9.93847 49.4526 10.0678C49.4526 10.1972 49.4998 10.3265 49.6181 10.4343C49.7363 10.5421 49.8782 10.5852 50.0201 10.5852ZM51.108 8.90366C51.2026 8.81743 51.2736 8.68808 51.2736 8.53717C51.2736 8.38626 51.2026 8.27846 51.108 8.17067C51.0134 8.08444 50.8715 8.01976 50.706 8.01976C50.5404 8.01976 50.4222 8.08444 50.3039 8.17067C50.2093 8.25691 50.1384 8.38626 50.1384 8.53717C50.1384 8.66652 50.2093 8.79587 50.3039 8.90366C50.3985 8.98989 50.5404 9.05457 50.706 9.05457C50.8715 9.05457 51.0134 9.01145 51.108 8.90366ZM50.5641 7.02807C50.5641 6.89872 50.5168 6.76937 50.3985 6.66158C50.2803 6.55378 50.1384 6.51067 49.9965 6.51067C49.8546 6.51067 49.7127 6.55378 49.5944 6.66158C49.4762 6.76937 49.4289 6.89872 49.4289 7.02807C49.4289 7.15742 49.4762 7.28677 49.5944 7.39457C49.7127 7.50236 49.8546 7.54548 49.9965 7.54548C50.1384 7.54548 50.2803 7.50236 50.3985 7.39457C50.5168 7.28677 50.5641 7.15742 50.5641 7.02807ZM48.7194 6.01482C48.6248 5.92859 48.4829 5.86391 48.3174 5.86391C48.1518 5.86391 48.0336 5.92859 47.9153 6.01482C47.8207 6.10106 47.7498 6.23041 47.7498 6.38132C47.7498 6.51067 47.8207 6.64002 47.9153 6.74781C48.0099 6.83404 48.1518 6.89872 48.3174 6.89872C48.4593 6.89872 48.6012 6.83404 48.7194 6.74781C48.814 6.66158 48.885 6.53223 48.885 6.38132C48.885 6.25197 48.8377 6.12261 48.7194 6.01482ZM43.7057 2.58702C43.2091 2.58702 42.7361 2.75949 42.3577 3.10442C41.9793 3.4278 41.7901 3.88053 41.7901 4.33326C41.7901 4.78599 41.9793 5.21716 42.3577 5.56209C42.7361 5.90703 43.2091 6.0795 43.7057 6.0795C44.2023 6.0795 44.6753 5.90703 45.0537 5.56209C45.4321 5.21716 45.6213 4.78599 45.6213 4.33326C45.6213 3.88053 45.4321 3.44936 45.0537 3.10442C44.6753 2.75949 44.1787 2.58702 43.7057 2.58702ZM40.4184 7.32989C40.0637 7.65327 39.8508 8.08444 39.8508 8.55872C39.8508 9.03301 40.0637 9.46418 40.4184 9.78756C40.7732 10.1109 41.2462 10.305 41.7664 10.305C42.2867 10.305 42.7597 10.1109 43.1145 9.78756C43.4692 9.46418 43.6821 9.03301 43.6821 8.55872C43.6821 8.08444 43.4692 7.65327 43.1145 7.32989C42.7597 7.00651 42.2867 6.81249 41.7664 6.81249C41.2462 6.81249 40.7732 7.00651 40.4184 7.32989ZM41.7901 12.7842C41.7901 13.2369 41.9793 13.6681 42.3577 14.013C42.7361 14.358 43.2091 14.5304 43.7057 14.5304C44.2023 14.5304 44.6753 14.358 45.0537 14.013C45.4321 13.6681 45.6213 13.2369 45.6213 12.7842C45.6213 12.3315 45.4321 11.9003 45.0537 11.5554C44.6753 11.2104 44.2023 11.038 43.7057 11.038C43.2091 11.038 42.7361 11.2104 42.3577 11.5554C41.9793 11.9003 41.7901 12.3315 41.7901 12.7842ZM46.993 15.7593C47.3477 16.0826 47.8207 16.2767 48.341 16.2767C48.8613 16.2767 49.3343 16.0826 49.689 15.7593C50.0438 15.4359 50.2566 15.0047 50.2566 14.5304C50.2566 14.0561 50.0438 13.625 49.689 13.3016C49.3343 12.9782 48.8613 12.7842 48.341 12.7842C47.8207 12.7842 47.3477 12.9782 46.993 13.3016C46.6383 13.625 46.4254 14.0561 46.4254 14.5304C46.4254 15.0047 46.6383 15.4359 46.993 15.7593ZM52.9763 14.5089C53.473 14.5089 53.946 14.3364 54.3244 13.9915C54.7028 13.6465 54.8919 13.2154 54.8919 12.7626C54.8919 12.3099 54.7028 11.8787 54.3244 11.5338C53.946 11.1889 53.473 11.0164 52.9763 11.0164C52.4797 11.0164 52.0067 11.1889 51.6283 11.5338C51.2499 11.8787 51.0607 12.3099 51.0607 12.7626C51.0607 13.2154 51.2499 13.6465 51.6283 13.9915C52.0067 14.3364 52.4797 14.5089 52.9763 14.5089ZM56.24 9.78756C56.5947 9.46418 56.8076 9.03301 56.8076 8.55872C56.8076 8.08444 56.5947 7.65327 56.24 7.32989C55.8852 7.00651 55.4122 6.81249 54.8919 6.81249C54.3717 6.81249 53.8987 7.00651 53.5439 7.32989C53.1892 7.65327 52.9763 8.08444 52.9763 8.55872C52.9763 9.03301 53.1892 9.46418 53.5439 9.78756C53.8987 10.1109 54.3717 10.305 54.8919 10.305C55.4122 10.2834 55.8852 10.0894 56.24 9.78756ZM54.8683 4.33326C54.8683 3.88053 54.6791 3.44936 54.3007 3.10442C53.9223 2.75949 53.4493 2.58702 52.9527 2.58702C52.456 2.58702 51.9831 2.75949 51.6047 3.10442C51.2263 3.44936 51.0371 3.88053 51.0371 4.33326C51.0371 4.78599 51.2263 5.21716 51.6047 5.56209C51.9831 5.90703 52.456 6.0795 52.9527 6.0795C53.4493 6.0795 53.9223 5.90703 54.3007 5.56209C54.6791 5.21716 54.8683 4.76443 54.8683 4.33326ZM49.689 1.33663C49.3343 1.01325 48.8613 0.819223 48.341 0.819223C47.8207 0.819223 47.3477 1.01325 46.993 1.33663C46.6383 1.66 46.4254 2.09117 46.4254 2.56546C46.4254 3.03975 46.6383 3.47092 46.993 3.7943C47.3477 4.11767 47.8207 4.3117 48.341 4.3117C48.8613 4.3117 49.3343 4.11767 49.689 3.7943C50.0438 3.47092 50.2566 3.03975 50.2566 2.56546C50.233 2.09117 50.0201 1.66 49.689 1.33663Z" fill="url(#paint0_linear_968_20371)"/>
</g>
<defs>
<linearGradient id="paint0_linear_968_20371" x1="38.8028" y1="0.0505296" x2="38.8028" y2="17.1368" gradientUnits="userSpaceOnUse">
<stop stop-color="#FFF7A9"/>
<stop offset="0.266157" stop-color="#FFE2A9"/>
<stop offset="0.59938" stop-color="#E0982C"/>
<stop offset="1" stop-color="#BC7C1C"/>
</linearGradient>
<clipPath id="clip0_968_20371">
<rect width="18.7541" height="17.0959" fill="white" transform="translate(38.9512)"/>
</clipPath>
</defs>
</svg>
