<svg width="161" height="178" viewBox="0 0 161 178" fill="none" xmlns="http://www.w3.org/2000/svg">
<path d="M50.783 22.4191C53.9345 30.2437 57.1077 37.9928 58.9455 46.198C60.6827 53.9541 62.1602 62.1388 60.1482 69.2186C59.8334 70.3262 58.7504 72.1475 57.8663 71.2595C56.6836 70.0717 56.9896 67.8055 57.1357 66.1928C59.2266 43.1031 81.8301 37.6451 99.3692 41.0076C112.778 43.5783 132.443 54.9599 130.787 74.2851C129.441 89.9904 114.64 102.231 100.967 99.4739C100.294 99.3383 95.5028 98.4477 96.6656 95.8657C98.579 91.6171 105.565 91.32 109.398 91.6198C119.494 92.4092 130.216 101.179 130.314 114.289C130.601 153.012 85.4216 158.935 58.9082 153.977" stroke="url(#paint0_linear_1011_1760)" stroke-linecap="round"/>
<path d="M57.3117 152.376C61.7706 149.105 67.6186 147.788 71.4833 143.64C74.0555 140.878 75.6099 137.313 79.0341 135.792C81.483 134.703 78.9097 136.69 78.267 137.93C76.4773 141.383 74.6974 143.283 71.7643 145.376C66.57 149.083 60.7378 152.009 54.9545 154.579C54.4176 154.817 47.7323 157.976 49.6039 154.902C51.876 151.17 61.6548 156.208 64.5897 157.935C68.6558 160.328 72.5581 164.719 75.3136 169.151C76.6737 171.339 75.0774 168.426 74.6705 167.704C71.0899 161.354 59.2517 157.013 53.8837 154.156C49.5388 151.843 47.5133 151.081 51.4122 154.997" stroke="url(#paint1_linear_1011_1760)" stroke-linecap="round"/>
<defs>
<linearGradient id="paint0_linear_1011_1760" x1="64.7387" y1="-8.97973" x2="179.296" y2="64.2841" gradientUnits="userSpaceOnUse">
<stop offset="0.0977592" stop-color="#C9E1FF"/>
<stop offset="0.617292" stop-color="#0D6783"/>
<stop offset="1" stop-color="#163F50"/>
</linearGradient>
<linearGradient id="paint1_linear_1011_1760" x1="68.2179" y1="135.173" x2="91.499" y2="158.031" gradientUnits="userSpaceOnUse">
<stop offset="0.0977592" stop-color="#C9E1FF"/>
<stop offset="0.617292" stop-color="#0D6783"/>
<stop offset="1" stop-color="#163F50"/>
</linearGradient>
</defs>
</svg>
