<svg width="161" height="178" viewBox="0 0 161 178" fill="none" xmlns="http://www.w3.org/2000/svg">
<path d="M109.333 22.4191C106.182 30.2437 103.008 37.9928 101.171 46.198C99.4335 53.9541 97.9561 62.1388 99.968 69.2186C100.283 70.3262 101.366 72.1475 102.25 71.2595C103.433 70.0717 103.127 67.8055 102.981 66.1928C100.89 43.1031 78.2861 37.6451 60.747 41.0076C47.3383 43.5783 27.6727 54.9599 29.329 74.2851C30.675 89.9904 45.4758 102.231 59.149 99.4739C59.8218 99.3383 64.6134 98.4477 63.4506 95.8657C61.5372 91.6171 54.5517 91.32 50.7179 91.6198C40.6218 92.4092 29.8999 101.179 29.8027 114.289C29.5154 153.012 74.6946 158.935 101.208 153.977" stroke="url(#paint0_linear_1011_1753)" stroke-linecap="round"/>
<path d="M102.804 152.376C98.3456 149.105 92.4976 147.788 88.633 143.64C86.0607 140.878 84.5063 137.313 81.0821 135.792C78.6332 134.703 81.2066 136.69 81.8492 137.93C83.6389 141.383 85.4188 143.283 88.3519 145.376C93.5462 149.083 99.3784 152.009 105.162 154.579C105.699 154.817 112.384 157.976 110.512 154.902C108.24 151.17 98.4614 156.208 95.5265 157.935C91.4604 160.328 87.5581 164.719 84.8026 169.151C83.4425 171.339 85.0388 168.426 85.4457 167.704C89.0263 161.354 100.864 157.013 106.233 154.156C110.577 151.843 112.603 151.081 108.704 154.997" stroke="url(#paint1_linear_1011_1753)" stroke-linecap="round"/>
<defs>
<linearGradient id="paint0_linear_1011_1753" x1="95.3775" y1="-8.97973" x2="-19.1794" y2="64.2841" gradientUnits="userSpaceOnUse">
<stop offset="0.0977592" stop-color="#C9E1FF"/>
<stop offset="0.617292" stop-color="#0D6783"/>
<stop offset="1" stop-color="#163F50"/>
</linearGradient>
<linearGradient id="paint1_linear_1011_1753" x1="91.8983" y1="135.173" x2="68.6172" y2="158.031" gradientUnits="userSpaceOnUse">
<stop offset="0.0977592" stop-color="#C9E1FF"/>
<stop offset="0.617292" stop-color="#0D6783"/>
<stop offset="1" stop-color="#163F50"/>
</linearGradient>
</defs>
</svg>
