<svg width="27" height="26" viewBox="0 0 27 26" fill="none" xmlns="http://www.w3.org/2000/svg">
<path d="M13.4994 23.8327C14.9223 23.8345 16.3315 23.5552 17.6461 23.0106C18.9607 22.4661 20.1548 21.6671 21.1596 20.6596C22.1671 19.6548 22.9661 18.4607 23.5106 17.1461C24.0552 15.8315 24.3345 14.4223 24.3327 12.9994C24.3345 11.5764 24.0551 10.1672 23.5106 8.85259C22.966 7.53799 22.1671 6.34396 21.1596 5.33911C20.1548 4.33162 18.9607 3.53265 17.6461 2.9881C16.3315 2.44356 14.9223 2.16418 13.4994 2.16602C12.0764 2.16421 10.6672 2.4436 9.35259 2.98815C8.03799 3.53269 6.84396 4.33165 5.83911 5.33911C4.83165 6.34396 4.03269 7.53799 3.48815 8.85259C2.9436 10.1672 2.66421 11.5764 2.66602 12.9994C2.66418 14.4223 2.94356 15.8315 3.4881 17.1461C4.03265 18.4607 4.83162 19.6548 5.83911 20.6596C6.84396 21.6671 8.03799 22.466 9.35259 23.0106C10.6672 23.5551 12.0764 23.8345 13.4994 23.8327Z" stroke="black" stroke-width="2.16667" stroke-linejoin="round"/>
<path fill-rule="evenodd" clip-rule="evenodd" d="M13.4997 20.0404C13.8588 20.0404 14.2033 19.8977 14.4572 19.6437C14.7112 19.3898 14.8538 19.0453 14.8538 18.6862C14.8538 18.3271 14.7112 17.9826 14.4572 17.7287C14.2033 17.4747 13.8588 17.332 13.4997 17.332C13.1405 17.332 12.7961 17.4747 12.5421 17.7287C12.2882 17.9826 12.1455 18.3271 12.1455 18.6862C12.1455 19.0453 12.2882 19.3898 12.5421 19.6437C12.7961 19.8977 13.1405 20.0404 13.4997 20.0404Z" fill="black"/>
<path d="M13.499 6.5V15.1667" stroke="black" stroke-width="2.16667" stroke-linecap="round" stroke-linejoin="round"/>
</svg>
