<svg width="26" height="26" viewBox="0 0 26 26" fill="none" xmlns="http://www.w3.org/2000/svg">
<path d="M12.9994 23.8327C14.4223 23.8345 15.8315 23.5552 17.1461 23.0106C18.4607 22.4661 19.6548 21.6671 20.6596 20.6596C21.6671 19.6548 22.4661 18.4607 23.0106 17.1461C23.5552 15.8315 23.8345 14.4223 23.8327 12.9994C23.8345 11.5764 23.5551 10.1672 23.0106 8.85259C22.466 7.53799 21.6671 6.34396 20.6596 5.33911C19.6548 4.33162 18.4607 3.53265 17.1461 2.9881C15.8315 2.44356 14.4223 2.16418 12.9994 2.16602C11.5764 2.16421 10.1672 2.4436 8.85259 2.98815C7.53799 3.53269 6.34396 4.33165 5.33911 5.33911C4.33165 6.34396 3.53269 7.53799 2.98815 8.85259C2.4436 10.1672 2.16421 11.5764 2.16602 12.9994C2.16418 14.4223 2.44356 15.8315 2.9881 17.1461C3.53265 18.4607 4.33162 19.6548 5.33911 20.6596C6.34396 21.6671 7.53799 22.466 8.85259 23.0106C10.1672 23.5551 11.5764 23.8345 12.9994 23.8327Z" stroke="url(#paint0_linear_1011_21548)" stroke-width="2.16667" stroke-linejoin="round"/>
<path fill-rule="evenodd" clip-rule="evenodd" d="M12.9987 20.0413C13.3578 20.0413 13.7023 19.8987 13.9562 19.6447C14.2102 19.3908 14.3529 19.0463 14.3529 18.6872C14.3529 18.328 14.2102 17.9836 13.9562 17.7296C13.7023 17.4757 13.3578 17.333 12.9987 17.333C12.6396 17.333 12.2951 17.4757 12.0412 17.7296C11.7872 17.9836 11.6445 18.328 11.6445 18.6872C11.6445 19.0463 11.7872 19.3908 12.0412 19.6447C12.2951 19.8987 12.6396 20.0413 12.9987 20.0413Z" fill="url(#paint1_linear_1011_21548)"/>
<path d="M13 6.49902V15.1657" stroke="url(#paint2_linear_1011_21548)" stroke-width="2.16667" stroke-linecap="round" stroke-linejoin="round"/>
<defs>
<linearGradient id="paint0_linear_1011_21548" x1="23.8327" y1="2.16601" x2="-2.32112" y2="12.9255" gradientUnits="userSpaceOnUse">
<stop stop-color="#0D6783"/>
<stop offset="1" stop-color="#163F50"/>
</linearGradient>
<linearGradient id="paint1_linear_1011_21548" x1="14.3529" y1="17.333" x2="11.0836" y2="18.6779" gradientUnits="userSpaceOnUse">
<stop stop-color="#0D6783"/>
<stop offset="1" stop-color="#163F50"/>
</linearGradient>
<linearGradient id="paint2_linear_1011_21548" x1="14" y1="6.49902" x2="12.5918" y2="6.56587" gradientUnits="userSpaceOnUse">
<stop stop-color="#0D6783"/>
<stop offset="1" stop-color="#163F50"/>
</linearGradient>
</defs>
</svg>
