<svg width="15" height="13" viewBox="0 0 15 13" fill="none" xmlns="http://www.w3.org/2000/svg">
<path d="M13.1 1.48047H1.9C1.1268 1.48047 0.5 2.15255 0.5 2.98161V10.4873C0.5 11.3164 1.1268 11.9885 1.9 11.9885H13.1C13.8732 11.9885 14.5 11.3164 14.5 10.4873V2.98161C14.5 2.15255 13.8732 1.48047 13.1 1.48047Z" stroke="black" stroke-linecap="round" stroke-linejoin="bevel"/>
<path d="M0.90625 1.92383L6.66725 8.09352C6.79727 8.23309 6.95168 8.34381 7.12163 8.41936C7.29159 8.4949 7.47377 8.53378 7.65775 8.53378C7.84173 8.53378 8.02391 8.4949 8.19387 8.41936C8.36382 8.34381 8.51823 8.23309 8.64825 8.09352L14.2483 2.08895" stroke="black" stroke-linecap="round" stroke-linejoin="round"/>
</svg>
