<svg width="29" height="29" viewBox="0 0 29 29" fill="none" xmlns="http://www.w3.org/2000/svg">
<g clip-path="url(#clip0_2038_7953)">
<path d="M16.3594 28.3438H11.8754C11.1265 28.3438 10.5172 27.7345 10.5172 26.9855V16.8718H7.90118C7.15222 16.8718 6.54297 16.2623 6.54297 15.5136V11.1798C6.54297 10.4308 7.15222 9.82156 7.90118 9.82156H10.5172V7.65137C10.5172 5.49954 11.1929 3.66879 12.471 2.35736C13.7549 1.03995 15.5491 0.34375 17.6597 0.34375L21.0794 0.349304C21.8271 0.350586 22.4352 0.959839 22.4352 1.70752V5.73132C22.4352 6.48029 21.8262 7.08954 21.0775 7.08954L18.775 7.09039C18.0728 7.09039 17.894 7.23117 17.8558 7.27432C17.7928 7.34589 17.7178 7.54819 17.7178 8.10681V9.82135H20.9044C21.1443 9.82135 21.3767 9.88052 21.5765 9.99204C22.0074 10.2328 22.2752 10.688 22.2752 11.18L22.2735 15.5138C22.2735 16.2623 21.6643 16.8716 20.9153 16.8716H17.7178V26.9855C17.7178 27.7345 17.1083 28.3438 16.3594 28.3438ZM12.1587 26.7023H16.0761V16.1369C16.0761 15.6368 16.4831 15.2301 16.9829 15.2301H20.632L20.6335 11.463H16.9827C16.4828 11.463 16.0761 11.0563 16.0761 10.5562V8.10681C16.0761 7.46552 16.1413 6.73621 16.6253 6.18805C17.2102 5.52539 18.132 5.44891 18.7746 5.44891L20.7938 5.44806V1.99036L17.6584 1.98523C14.2665 1.98523 12.1587 4.15649 12.1587 7.65137V10.5562C12.1587 11.0561 11.752 11.463 11.2521 11.463H8.18445V15.2301H11.2521C11.752 15.2301 12.1587 15.6368 12.1587 16.1369V26.7023Z" fill="black"/>
</g>
<defs>
<clipPath id="clip0_2038_7953">
<rect width="27.9453" height="28" fill="white" transform="translate(0.5 0.398438)"/>
</clipPath>
</defs>
</svg>
