<svg width="43" height="38" viewBox="0 0 43 38" fill="none" xmlns="http://www.w3.org/2000/svg">
<path d="M5.73605 0.591797C4.35202 0.591797 3.02469 1.1416 2.04603 2.12025C1.06738 3.0989 0.517578 4.42624 0.517578 5.81027V31.9026C0.517578 33.2866 1.06738 34.614 2.04603 35.5926C3.02469 36.5713 4.35202 37.1211 5.73605 37.1211H37.0469C38.4309 37.1211 39.7582 36.5713 40.7369 35.5926C41.7155 34.614 42.2653 33.2866 42.2653 31.9026V5.81027C42.2653 4.42624 41.7155 3.0989 40.7369 2.12025C39.7582 1.1416 38.4309 0.591797 37.0469 0.591797H5.73605ZM37.0469 3.20103C37.7389 3.20103 38.4026 3.47593 38.8919 3.96526C39.3812 4.45459 39.6561 5.11826 39.6561 5.81027V22.7703L29.801 17.6901C29.5563 17.5675 29.2793 17.525 29.0091 17.5686C28.7389 17.6121 28.4893 17.7395 28.2955 17.9328L18.6152 27.613L11.6747 22.9895C11.4241 22.8226 11.1235 22.7476 10.8239 22.7771C10.5243 22.8066 10.2441 22.9388 10.0308 23.1512L3.12681 29.2934V5.81027C3.12681 5.11826 3.40171 4.45459 3.89104 3.96526C4.38037 3.47593 5.04404 3.20103 5.73605 3.20103H37.0469Z" fill="black"/>
</svg>
