<svg width="33" height="33" viewBox="0 0 33 33" fill="none" xmlns="http://www.w3.org/2000/svg">
<g clip-path="url(#clip0_2038_7948)">
<path d="M16.5 21.3984C19.2614 21.3984 21.5 19.1599 21.5 16.3984C21.5 13.637 19.2614 11.3984 16.5 11.3984C13.7386 11.3984 11.5 13.637 11.5 16.3984C11.5 19.1599 13.7386 21.3984 16.5 21.3984Z" stroke="black" stroke-width="2" stroke-miterlimit="10"/>
<path d="M22.5 4.39844H10.5C7.18629 4.39844 4.5 7.08473 4.5 10.3984V22.3984C4.5 25.7121 7.18629 28.3984 10.5 28.3984H22.5C25.8137 28.3984 28.5 25.7121 28.5 22.3984V10.3984C28.5 7.08473 25.8137 4.39844 22.5 4.39844Z" stroke="black" stroke-width="2" stroke-linecap="round" stroke-linejoin="round"/>
<path d="M23 11.3984C23.8284 11.3984 24.5 10.7269 24.5 9.89844C24.5 9.07001 23.8284 8.39844 23 8.39844C22.1716 8.39844 21.5 9.07001 21.5 9.89844C21.5 10.7269 22.1716 11.3984 23 11.3984Z" fill="black"/>
</g>
<defs>
<clipPath id="clip0_2038_7948">
<rect width="32" height="32" fill="white" transform="translate(0.5 0.398438)"/>
</clipPath>
</defs>
</svg>
