<svg width="25" height="25" viewBox="0 0 25 25" fill="none" xmlns="http://www.w3.org/2000/svg">
<g opacity="0.5">
<path d="M9.50014 15.5003L15.5001 9.50031M11.5001 6.50031L11.9631 5.96431C12.9009 5.02663 14.1728 4.49991 15.499 4.5C16.8252 4.50009 18.097 5.027 19.0346 5.96481C19.9723 6.90261 20.499 8.1745 20.4989 9.50066C20.4989 10.8268 19.9719 12.0986 19.0341 13.0363L18.5001 13.5003M13.5001 18.5003L13.1031 19.0343C12.1544 19.9725 10.8739 20.4987 9.53964 20.4987C8.20535 20.4987 6.92489 19.9725 5.97614 19.0343C5.5085 18.5719 5.13724 18.0213 4.88385 17.4144C4.63047 16.8076 4.5 16.1565 4.5 15.4988C4.5 14.8412 4.63047 14.19 4.88385 13.5832C5.13724 12.9763 5.5085 12.4257 5.97614 11.9633L6.50014 11.5003" stroke="black" stroke-width="2" stroke-linecap="round" stroke-linejoin="round"/>
</g>
</svg>
