<svg width="13" height="17" viewBox="0 0 13 17" fill="none" xmlns="http://www.w3.org/2000/svg">
<path d="M10.1008 1.00391H2.59067C1.53661 1.00391 0.682129 1.66072 0.682129 2.47094V14.4786C0.682129 15.2888 1.53661 15.9456 2.59067 15.9456H10.1008C11.1549 15.9456 12.0093 15.2888 12.0093 14.4786V2.47094C12.0093 1.66072 11.1549 1.00391 10.1008 1.00391Z" stroke="black" stroke-linecap="round" stroke-linejoin="round"/>
<path d="M6.35026 12.2852H6.34071C6.00342 12.2852 5.72998 12.4954 5.72998 12.7548V12.7622C5.72998 13.0215 6.00342 13.2318 6.34071 13.2318H6.35026C6.68756 13.2318 6.96099 13.0215 6.96099 12.7622V12.7548C6.96099 12.4954 6.68756 12.2852 6.35026 12.2852Z" stroke="black" stroke-linecap="round" stroke-linejoin="round"/>
</svg>
