<svg width="15" height="9" viewBox="0 0 15 9" fill="none" xmlns="http://www.w3.org/2000/svg">
<path d="M0.369391 0.379683C0.252343 0.49901 0.15944 0.640976 0.0960408 0.797393C0.0326412 0.95381 -3.44377e-07 1.12158 -3.3697e-07 1.29103C-3.29563e-07 1.46048 0.0326412 1.62825 0.0960408 1.78467C0.15944 1.94109 0.252343 2.08305 0.369391 2.20238L6.61336 8.62032C6.72945 8.74063 6.86757 8.83612 7.01974 8.90128C7.17192 8.96645 7.33514 9 7.5 9C7.66486 9 7.82808 8.96645 7.98026 8.90128C8.13243 8.83612 8.27055 8.74063 8.38664 8.62032L14.6306 2.20238C14.7477 2.08305 14.8406 1.94109 14.904 1.78467C14.9674 1.62825 15 1.46048 15 1.29103C15 1.12158 14.9674 0.953809 14.904 0.797393C14.8406 0.640976 14.7477 0.49901 14.6306 0.379683C14.5145 0.259374 14.3764 0.163883 14.2242 0.0987174C14.072 0.033551 13.9088 -2.53322e-07 13.744 -2.5032e-07C13.5791 -2.47317e-07 13.4159 0.033551 13.2637 0.0987174C13.1115 0.163883 12.9734 0.259374 12.8573 0.379683L7.5 5.89911L2.14268 0.379683C2.02659 0.259375 1.88847 0.163883 1.73629 0.0987177C1.58411 0.0335512 1.42089 -2.58788e-08 1.25603 -2.28762e-08C1.09118 -1.98737e-08 0.927954 0.0335512 0.775777 0.0987177C0.6236 0.163883 0.485482 0.259375 0.369391 0.379683Z" fill="#201F1F"/>
</svg>
