<?xml version="1.0" encoding="iso-8859-1"?>
<!-- Uploaded to: SVG Repo, www.svgrepo.com, Generator: SVG Repo Mixer Tools -->
<svg fill="#000000" version="1.1" id="Layer_1" xmlns="http://www.w3.org/2000/svg" xmlns:xlink="http://www.w3.org/1999/xlink" 
	 viewBox="0 0 512 512" xml:space="preserve">
<g>
	<g>
		<rect width="73.143" height="73.143"/>
	</g>
</g>
<g>
	<g>
		<rect x="438.857" width="73.143" height="73.143"/>
	</g>
</g>
<g>
	<g>
		<rect y="438.857" width="73.143" height="73.143"/>
	</g>
</g>
<g>
	<g>
		<rect x="438.857" y="438.857" width="73.143" height="73.143"/>
	</g>
</g>
<g>
	<g>
		<rect x="365.714" y="18.286" width="36.571" height="36.571"/>
	</g>
</g>
<g>
	<g>
		<rect x="301.714" y="18.286" width="36.571" height="36.571"/>
	</g>
</g>
<g>
	<g>
		<rect x="237.714" y="18.286" width="36.571" height="36.571"/>
	</g>
</g>
<g>
	<g>
		<rect x="173.714" y="18.286" width="36.571" height="36.571"/>
	</g>
</g>
<g>
	<g>
		<rect x="109.712" y="18.286" width="36.571" height="36.571"/>
	</g>
</g>
<g>
	<g>
		<rect x="365.714" y="457.143" width="36.571" height="36.571"/>
	</g>
</g>
<g>
	<g>
		<rect x="301.714" y="457.143" width="36.571" height="36.571"/>
	</g>
</g>
<g>
	<g>
		<rect x="237.714" y="457.143" width="36.571" height="36.571"/>
	</g>
</g>
<g>
	<g>
		<rect x="173.714" y="457.143" width="36.571" height="36.571"/>
	</g>
</g>
<g>
	<g>
		<rect x="109.712" y="457.143" width="36.571" height="36.571"/>
	</g>
</g>
<g>
	<g>
		<rect x="457.143" y="365.714" width="36.571" height="36.571"/>
	</g>
</g>
<g>
	<g>
		<rect x="457.143" y="301.714" width="36.571" height="36.571"/>
	</g>
</g>
<g>
	<g>
		<rect x="457.143" y="237.714" width="36.571" height="36.571"/>
	</g>
</g>
<g>
	<g>
		<rect x="457.143" y="173.714" width="36.571" height="36.571"/>
	</g>
</g>
<g>
	<g>
		<rect x="457.143" y="109.714" width="36.571" height="36.571"/>
	</g>
</g>
<g>
	<g>
		<rect x="18.286" y="365.714" width="36.571" height="36.571"/>
	</g>
</g>
<g>
	<g>
		<rect x="18.286" y="301.714" width="36.571" height="36.571"/>
	</g>
</g>
<g>
	<g>
		<rect x="18.286" y="237.714" width="36.571" height="36.571"/>
	</g>
</g>
<g>
	<g>
		<rect x="18.286" y="173.714" width="36.571" height="36.571"/>
	</g>
</g>
<g>
	<g>
		<rect x="18.286" y="109.714" width="36.571" height="36.571"/>
	</g>
</g>
<g>
	<g>
		<path d="M256,105.398L107.557,402.286h40.887l45.716-91.429h123.683l45.716,91.429h40.886L256,105.398z M212.443,274.286
			L256,187.174l43.557,87.112H212.443z"/>
	</g>
</g>
</svg>