<svg width="28" height="28" viewBox="0 0 28 28" fill="none" xmlns="http://www.w3.org/2000/svg">
<g clip-path="url(#clip0_2038_7955)">
<path d="M0.977627 22.943C3.47738 24.5292 6.38663 25.3674 9.39038 25.3674C13.7891 25.3674 17.82 23.6776 20.7416 20.6097C23.5373 17.6735 25.0751 13.7281 24.9986 9.72425C26.0584 8.8175 27.3049 7.08612 27.3049 5.39862C27.3049 4.75175 26.6029 4.34112 26.0336 4.67075C25.038 5.25575 24.1301 5.40875 23.1964 5.14662C21.2895 3.28812 18.4511 2.89662 16.0594 4.18587C13.9691 5.31087 12.807 7.36962 12.9116 9.61962C9.38025 9.18875 6.11775 7.418 3.843 4.66625C3.4695 4.21737 2.76075 4.27025 2.46375 4.77875C1.368 6.65525 1.37925 8.82987 2.33213 10.586C1.87875 10.6659 1.59863 11.0472 1.59863 11.4601C1.59863 13.2252 2.39288 14.8475 3.672 15.9545C3.4335 16.184 3.35475 16.5249 3.456 16.8286C4.0185 18.5184 5.292 19.8391 6.88388 20.5006C5.1525 21.3275 3.23775 21.6031 1.53338 21.3939C0.651377 21.2746 0.216002 22.4604 0.977627 22.943ZM9.621 20.7897C10.2521 20.3049 9.91688 19.2946 9.12488 19.2777C7.72988 19.2485 6.45975 18.5611 5.66888 17.48C6.05025 17.4552 6.44513 17.3967 6.82088 17.2955C7.677 17.0637 7.6365 15.8285 6.76688 15.6541C5.1885 15.3369 3.94988 14.1871 3.48525 12.7066C3.90938 12.8112 4.34138 12.8697 4.77225 12.8776C5.62613 12.8821 5.949 11.7875 5.25263 11.3296C3.68325 10.2957 3.01388 8.46987 3.45713 6.75312C6.19763 9.52962 9.91575 11.2025 13.8488 11.3915C14.4124 11.4264 14.8354 10.8965 14.7116 10.3599C14.1773 8.0435 15.471 6.42012 16.8604 5.672C18.2351 4.9295 20.4424 4.69775 22.1344 6.473C22.6373 7.00287 24.3338 7.02312 25.1966 6.82175C24.8096 7.55075 24.2145 8.24262 23.6576 8.63187C23.4203 8.79837 23.2841 9.07512 23.2988 9.36425C23.4799 13.0599 22.1029 16.7341 19.521 19.4442C16.92 22.1746 13.3234 23.6787 9.3915 23.6787C7.82775 23.6787 6.29438 23.4245 4.84538 22.934C6.57788 22.5987 8.22375 21.8652 9.621 20.7897Z" fill="black"/>
</g>
<defs>
<clipPath id="clip0_2038_7955">
<rect width="27" height="27" fill="white" transform="translate(0.445312 0.898438)"/>
</clipPath>
</defs>
</svg>
